<svg width="3332" height="2085" xmlns="http://www.w3.org/2000/svg" xmlns:xlink="http://www.w3.org/1999/xlink" xml:space="preserve" overflow="hidden"><g transform="translate(-540 -335)"><rect x="542.5" y="337.5" width="3327" height="2080" stroke="#FFFFFF" stroke-width="4.58333" stroke-miterlimit="8" fill="#FFFFFF"/><path d="M2900.5 999 2940.25 999 2940.25 731.5 3019.75 731.5 3019.75 999 3059.5 999 2980 1078.5Z" stroke="#000000" stroke-width="20.625" stroke-miterlimit="8" fill="#FFFFFF" fill-rule="evenodd"/><path d="M1345.5 999 1385.25 999 1385.25 731.5 1464.75 731.5 1464.75 999 1504.5 999 1425 1078.5Z" stroke="#000000" stroke-width="20.625" stroke-miterlimit="8" fill="#FFFFFF" fill-rule="evenodd"/><path d="M1255.5 577.5C1255.5 486.373 1329.37 412.5 1420.5 412.5 1511.63 412.5 1585.5 486.373 1585.5 577.5 1585.5 668.627 1511.63 742.5 1420.5 742.5 1329.37 742.5 1255.5 668.627 1255.5 577.5Z" stroke="#000000" stroke-width="20.625" stroke-miterlimit="8" fill="#FFFFFF" fill-rule="evenodd"/><path d="M0 0 9.56545 1822.17" stroke="#000000" stroke-width="20.625" stroke-miterlimit="8" fill="none" fill-rule="evenodd" transform="matrix(-1 0 0 1 2206.07 453.5)"/><path d="M2817.5 577.5C2817.5 486.373 2891.37 412.5 2982.5 412.5 3073.63 412.5 3147.5 486.373 3147.5 577.5 3147.5 668.627 3073.63 742.5 2982.5 742.5 2891.37 742.5 2817.5 668.627 2817.5 577.5Z" stroke="#000000" stroke-width="20.625" stroke-miterlimit="8" fill="#FFFFFF" fill-rule="evenodd"/><text font-family="Arial,Arial_MSFontService,sans-serif" font-weight="400" font-size="220" transform="matrix(1 0 0 1 2912.21 657)">B</text><path d="M1000.5 1384.5C1000.5 1293.37 1074.37 1219.5 1165.5 1219.5 1256.63 1219.5 1330.5 1293.37 1330.5 1384.5 1330.5 1475.63 1256.63 1549.5 1165.5 1549.5 1074.37 1549.5 1000.5 1475.63 1000.5 1384.5Z" stroke="#000000" stroke-width="20.625" stroke-miterlimit="8" fill="#B2DF8A" fill-rule="evenodd"/><path d="M1516.5 1384.5C1516.5 1293.37 1590.37 1219.5 1681.5 1219.5 1772.63 1219.5 1846.5 1293.37 1846.5 1384.5 1846.5 1475.63 1772.63 1549.5 1681.5 1549.5 1590.37 1549.5 1516.5 1475.63 1516.5 1384.5Z" stroke="#000000" stroke-width="20.625" stroke-miterlimit="8" fill="#CAB2D6" fill-rule="evenodd"/><path d="M2564.5 1376.5C2564.5 1285.37 2638.37 1211.5 2729.5 1211.5 2820.63 1211.5 2894.5 1285.37 2894.5 1376.5 2894.5 1467.63 2820.63 1541.5 2729.5 1541.5 2638.37 1541.5 2564.5 1467.63 2564.5 1376.5Z" stroke="#000000" stroke-width="20.625" stroke-miterlimit="8" fill="#A6CEE3" fill-rule="evenodd"/><path d="M3080.5 1376.5C3080.5 1285.37 3154.37 1211.5 3245.5 1211.5 3336.63 1211.5 3410.5 1285.37 3410.5 1376.5 3410.5 1467.63 3336.63 1541.5 3245.5 1541.5 3154.37 1541.5 3080.5 1467.63 3080.5 1376.5Z" stroke="#000000" stroke-width="20.625" stroke-miterlimit="8" fill="#FFFF99" fill-rule="evenodd"/><path d="M1085.5 1969 1125.25 1969 1125.25 1549.5 1204.75 1549.5 1204.75 1969 1244.5 1969 1165 2048.5Z" stroke="#000000" stroke-width="20.625" stroke-miterlimit="8" fill="#B2DF8A" fill-rule="evenodd"/><path d="M1599.5 1969 1639.25 1969 1639.25 1549.5 1718.75 1549.5 1718.75 1969 1758.5 1969 1679 2048.5Z" stroke="#000000" stroke-width="20.625" stroke-miterlimit="8" fill="#CAB2D6" fill-rule="evenodd"/><path d="M2649.5 1960.5 2689.5 1960.5 2689.5 1541.5 2769.5 1541.5 2769.5 1960.5 2809.5 1960.5 2729.5 2040.5Z" stroke="#000000" stroke-width="20.625" stroke-miterlimit="8" fill="#A6CEE3" fill-rule="evenodd"/><path d="M3165.5 1960.5 3205.5 1960.5 3205.5 1541.5 3285.5 1541.5 3285.5 1960.5 3325.5 1960.5 3245.5 2040.5Z" stroke="#000000" stroke-width="20.625" stroke-miterlimit="8" fill="#FFFF99" fill-rule="evenodd"/><text font-family="Arial,Arial_MSFontService,sans-serif" font-weight="400" font-size="183" transform="matrix(1 0 0 1 2626.9 1441)">b1</text><text font-family="Arial,Arial_MSFontService,sans-serif" font-weight="400" font-size="183" transform="matrix(1 0 0 1 3141.62 1441)">b2</text><text font-family="Arial,Arial_MSFontService,sans-serif" font-weight="400" font-size="183" transform="matrix(1 0 0 1 1060.59 1450)">a1</text><text font-family="Arial,Arial_MSFontService,sans-serif" font-weight="400" font-size="183" transform="matrix(1 0 0 1 1581.9 1450)">a2</text><path d="M1599 1917C1577.18 1917 1559.5 1914.05 1559.5 1910.42L1559.5 1754.58C1559.5 1750.95 1541.82 1748 1520 1748 1541.82 1748 1559.5 1745.05 1559.5 1741.42L1559.5 1585.58C1559.5 1581.95 1577.18 1579 1599 1579" stroke="#000000" stroke-width="10.3125" stroke-miterlimit="8" fill="none" fill-rule="evenodd"/><path d="M1235 1578C1256.82 1578 1274.5 1580.95 1274.5 1584.58L1274.5 1740.42C1274.5 1744.05 1292.18 1747 1314 1747 1292.18 1747 1274.5 1749.95 1274.5 1753.58L1274.5 1909.42C1274.5 1913.05 1256.82 1916 1235 1916" stroke="#000000" stroke-width="10.3125" stroke-miterlimit="8" fill="none" fill-rule="evenodd"/><text font-family="Arial,Arial_MSFontService,sans-serif" font-weight="400" font-size="50" transform="matrix(1 0 0 1 1323.25 1764)">Duration</text><path d="M3174 1908C3152.19 1908 3134.5 1905.05 3134.5 1901.42L3134.5 1745.58C3134.5 1741.95 3116.82 1739 3095 1739 3116.82 1739 3134.5 1736.05 3134.5 1732.42L3134.5 1576.58C3134.5 1572.95 3152.19 1570 3174 1570" stroke="#000000" stroke-width="10.3125" stroke-miterlimit="8" fill="none" fill-rule="evenodd"/><path d="M2811 1569C2832.82 1569 2850.5 1571.95 2850.5 1575.58L2850.5 1731.42C2850.5 1735.05 2868.18 1738 2890 1738 2868.18 1738 2850.5 1740.95 2850.5 1744.58L2850.5 1900.42C2850.5 1904.05 2832.82 1907 2811 1907" stroke="#000000" stroke-width="10.3125" stroke-miterlimit="8" fill="none" fill-rule="evenodd"/><text font-family="Arial,Arial_MSFontService,sans-serif" font-weight="400" font-size="50" transform="matrix(1 0 0 1 2898.98 1757)">Duration</text><text font-family="Arial,Arial_MSFontService,sans-serif" font-weight="400" font-size="83" transform="matrix(-1.83697e-16 -1 1 -1.83697e-16 739.579 1851)">Terminal links</text><path d="M902 1959C879.909 1959 862 1956.02 862 1952.33L862 1595.67C862 1591.98 844.091 1589 822 1589 844.091 1589 862 1586.02 862 1582.33L862 1225.67C862 1221.98 879.909 1219 902 1219" stroke="#A6A6A6" stroke-width="10.3125" stroke-miterlimit="8" fill="none" fill-rule="evenodd"/><text font-family="Arial,Arial_MSFontService,sans-serif" font-weight="400" font-size="83" transform="matrix(-1.83697e-16 -1 1 -1.83697e-16 742.604 873)">Initial link</text><path d="M902 983C880.185 983 862.5 980.053 862.5 976.417L862.5 704.083C862.5 700.447 844.815 697.5 823 697.5 844.815 697.5 862.5 694.553 862.5 690.917L862.5 418.583C862.5 414.947 880.185 412 902 412" stroke="#A6A6A6" stroke-width="10.3125" stroke-miterlimit="8" fill="none" fill-rule="evenodd"/><text font-family="Arial,Arial_MSFontService,sans-serif" font-weight="400" font-size="83" transform="matrix(6.12323e-17 1 -1 6.12323e-17 3664.06 1337)">Terminal links</text><path d="M80.0001 740C57.9087 740 40 737.015 40 733.333L40 376.667C40 372.985 22.0914 370-5.88825e-15 370 22.0914 370 40 367.015 40 363.333L40 6.6668C40 2.98483 57.9087-1.47206e-15 80.0001-2.94412e-15" stroke="#A6A6A6" stroke-width="10.3125" stroke-miterlimit="8" fill="none" fill-rule="evenodd" transform="matrix(-1 0 0 1 3586 1205)"/><text font-family="Arial,Arial_MSFontService,sans-serif" font-weight="400" font-size="83" transform="matrix(6.12323e-17 1 -1 6.12323e-17 3667.8 528)">Initial link</text><path d="M79.0116 584C57.1931 584 39.5058 581.052 39.5058 577.416L39.5058 298.584C39.5058 294.948 21.8184 292-4.64696e-15 292 21.8184 292 39.5058 289.052 39.5058 285.416L39.5058 6.58405C39.5058 2.94778 57.1931-2.32347e-15 79.0116-3.4852e-15" stroke="#A6A6A6" stroke-width="10.3125" stroke-miterlimit="8" fill="none" fill-rule="evenodd" transform="matrix(-1 0 0 1 3585 399)"/><text font-family="Arial,Arial_MSFontService,sans-serif" font-weight="400" font-size="220" transform="matrix(1 0 0 1 1350.29 658)">A</text><rect x="957.5" y="2131.5" width="434" height="211" stroke="#000000" stroke-width="20.625" stroke-miterlimit="8" fill="#FFFFFF"/><text font-family="Arial,Arial_MSFontService,sans-serif" font-weight="400" font-size="73" transform="matrix(1 0 0 1 1024.83 2219)">Outcome </text><text font-family="Arial,Arial_MSFontService,sans-serif" font-weight="400" font-size="73" transform="matrix(1 0 0 1 1133.11 2307)">a1</text><rect x="1463.5" y="2131.5" width="435" height="211" stroke="#000000" stroke-width="20.625" stroke-miterlimit="8" fill="#FFFFFF"/><text font-family="Arial,Arial_MSFontService,sans-serif" font-weight="400" font-size="73" transform="matrix(1 0 0 1 1531.73 2219)">Outcome </text><text font-family="Arial,Arial_MSFontService,sans-serif" font-weight="400" font-size="73" transform="matrix(1 0 0 1 1640.01 2307)">a2</text><rect x="2512.5" y="2131.5" width="435" height="211" stroke="#000000" stroke-width="20.625" stroke-miterlimit="8" fill="#FFFFFF"/><text font-family="Arial,Arial_MSFontService,sans-serif" font-weight="400" font-size="73" transform="matrix(1 0 0 1 2580.64 2219)">Outcome </text><text font-family="Arial,Arial_MSFontService,sans-serif" font-weight="400" font-size="73" transform="matrix(1 0 0 1 2688.92 2307)">b1</text><rect x="3019.5" y="2131.5" width="435" height="211" stroke="#000000" stroke-width="20.625" stroke-miterlimit="8" fill="#FFFFFF"/><text font-family="Arial,Arial_MSFontService,sans-serif" font-weight="400" font-size="73" transform="matrix(1 0 0 1 3087.54 2219)">Outcome </text><text font-family="Arial,Arial_MSFontService,sans-serif" font-weight="400" font-size="73" transform="matrix(1 0 0 1 3195.82 2307)">b2</text><path d="M1153 1186C1153 1163.91 1155.98 1146 1159.67 1146L1406.33 1146C1410.02 1146 1413 1128.09 1413 1106 1413 1128.09 1415.98 1146 1419.67 1146L1666.33 1146C1670.02 1146 1673 1163.91 1673 1186" stroke="#000000" stroke-width="10.3125" stroke-miterlimit="8" fill="none" fill-rule="evenodd"/><path d="M2727 1186C2727 1163.91 2729.98 1146 2733.67 1146L2980.33 1146C2984.02 1146 2987 1128.09 2987 1106 2987 1128.09 2989.98 1146 2993.67 1146L3240.33 1146C3244.02 1146 3247 1163.91 3247 1186" stroke="#000000" stroke-width="10.3125" stroke-miterlimit="8" fill="none" fill-rule="evenodd"/><path d="M1577 745C1592.74 745 1605.5 747.126 1605.5 749.75L1605.5 861.25C1605.5 863.873 1618.26 866 1634 866 1618.26 866 1605.5 868.126 1605.5 870.75L1605.5 982.25C1605.5 984.873 1592.74 987 1577 987" stroke="#000000" stroke-width="10.3125" stroke-miterlimit="8" fill="none" fill-rule="evenodd"/><text font-family="Arial,Arial_MSFontService,sans-serif" font-weight="400" font-size="50" transform="matrix(1 0 0 1 1668.53 884)">Duration</text><path d="M2839 986C2822.16 986 2808.5 983.724 2808.5 980.917L2808.5 870.583C2808.5 867.776 2794.84 865.5 2778 865.5 2794.84 865.5 2808.5 863.224 2808.5 860.417L2808.5 750.083C2808.5 747.276 2822.16 745 2839 745" stroke="#000000" stroke-width="10.3125" stroke-miterlimit="8" fill="none" fill-rule="evenodd"/><text font-family="Arial,Arial_MSFontService,sans-serif" font-weight="400" font-size="50" transform="matrix(1 0 0 1 2566.66 884)">Duration</text></g></svg>