<svg width="3136" height="1777" xmlns="http://www.w3.org/2000/svg" xmlns:xlink="http://www.w3.org/1999/xlink" xml:space="preserve" overflow="hidden"><g transform="translate(-636 -401)"><path d="M1255.5 703.5C1255.5 612.373 1329.37 538.5 1420.5 538.5 1511.63 538.5 1585.5 612.373 1585.5 703.5 1585.5 794.627 1511.63 868.5 1420.5 868.5 1329.37 868.5 1255.5 794.627 1255.5 703.5Z" stroke="#000000" stroke-width="20.625" stroke-miterlimit="8" fill="#FFFFFF" fill-rule="evenodd"/><text font-family="Arial,Arial_MSFontService,sans-serif" font-weight="400" font-size="220" transform="matrix(1 0 0 1 1350.29 784)">A</text><path d="M0 0 7.36978 1713.81" stroke="#000000" stroke-width="20.625" stroke-miterlimit="8" fill="none" fill-rule="evenodd" transform="matrix(-1 0 0 1 2205.87 453.5)"/><path d="M2817.5 711.5C2817.5 620.373 2891.37 546.5 2982.5 546.5 3073.63 546.5 3147.5 620.373 3147.5 711.5 3147.5 802.627 3073.63 876.5 2982.5 876.5 2891.37 876.5 2817.5 802.627 2817.5 711.5Z" stroke="#000000" stroke-width="20.625" stroke-miterlimit="8" fill="#FFFFFF" fill-rule="evenodd"/><text font-family="Arial,Arial_MSFontService,sans-serif" font-weight="400" font-size="220" transform="matrix(1 0 0 1 2912.21 792)">B</text><path d="M1000.5 1238.5C1000.5 1147.37 1074.37 1073.5 1165.5 1073.5 1256.63 1073.5 1330.5 1147.37 1330.5 1238.5 1330.5 1329.63 1256.63 1403.5 1165.5 1403.5 1074.37 1403.5 1000.5 1329.63 1000.5 1238.5Z" stroke="#000000" stroke-width="20.625" stroke-miterlimit="8" fill="#BBDD84" fill-rule="evenodd"/><path d="M1516.5 1238.5C1516.5 1147.37 1590.37 1073.5 1681.5 1073.5 1772.63 1073.5 1846.5 1147.37 1846.5 1238.5 1846.5 1329.63 1772.63 1403.5 1681.5 1403.5 1590.37 1403.5 1516.5 1329.63 1516.5 1238.5Z" stroke="#000000" stroke-width="20.625" stroke-miterlimit="8" fill="#C6B3D7" fill-rule="evenodd"/><path d="M2564.5 1238.5C2564.5 1147.37 2638.37 1073.5 2729.5 1073.5 2820.63 1073.5 2894.5 1147.37 2894.5 1238.5 2894.5 1329.63 2820.63 1403.5 2729.5 1403.5 2638.37 1403.5 2564.5 1329.63 2564.5 1238.5Z" stroke="#000000" stroke-width="20.625" stroke-miterlimit="8" fill="#B0CDE4" fill-rule="evenodd"/><path d="M3080.5 1238.5C3080.5 1147.37 3154.37 1073.5 3245.5 1073.5 3336.63 1073.5 3410.5 1147.37 3410.5 1238.5 3410.5 1329.63 3336.63 1403.5 3245.5 1403.5 3154.37 1403.5 3080.5 1329.63 3080.5 1238.5Z" stroke="#000000" stroke-width="20.625" stroke-miterlimit="8" fill="#FDFF92" fill-rule="evenodd"/><path d="M9.03125-4.97836 123.34 202.389 105.277 212.345-9.03125 4.97836ZM136.424 183.401 139.2 252.523 82.2362 213.271Z" transform="matrix(-1 0 0 1 1420.7 868.5)"/><path d="M1429.46 863.403 1547.56 1071.1 1529.63 1081.3 1411.54 873.597ZM1560.39 1051.94 1564.08 1121.02 1506.6 1082.53Z"/><path d="M9.03125-4.97836 123.34 202.389 105.277 212.345-9.03125 4.97836ZM136.424 183.401 139.2 252.523 82.2362 213.271Z" transform="matrix(-1 0 0 1 2985.7 876.5)"/><path d="M2994.46 871.403 3112.56 1079.1 3094.63 1089.3 2976.54 881.597ZM3125.39 1059.94 3129.08 1129.02 3071.6 1090.53Z"/><path d="M1085.5 1823 1125.25 1823 1125.25 1403.5 1204.75 1403.5 1204.75 1823 1244.5 1823 1165 1902.5Z" stroke="#000000" stroke-width="20.625" stroke-miterlimit="8" fill="#BBDD84" fill-rule="evenodd"/><path d="M1599.5 1823 1639.25 1823 1639.25 1403.5 1718.75 1403.5 1718.75 1823 1758.5 1823 1679 1902.5Z" stroke="#000000" stroke-width="20.625" stroke-miterlimit="8" fill="#C6B3D7" fill-rule="evenodd"/><path d="M2649.5 1822.5 2689.5 1822.5 2689.5 1403.5 2769.5 1403.5 2769.5 1822.5 2809.5 1822.5 2729.5 1902.5Z" stroke="#000000" stroke-width="20.625" stroke-miterlimit="8" fill="#B0CDE4" fill-rule="evenodd"/><path d="M3165.5 1822.5 3205.5 1822.5 3205.5 1403.5 3285.5 1403.5 3285.5 1822.5 3325.5 1822.5 3245.5 1902.5Z" stroke="#000000" stroke-width="20.625" stroke-miterlimit="8" fill="#FDFF92" fill-rule="evenodd"/><text font-family="Arial,Arial_MSFontService,sans-serif" font-weight="400" font-size="183" transform="matrix(1 0 0 1 2616.87 1303)">B1</text><text font-family="Arial,Arial_MSFontService,sans-serif" font-weight="400" font-size="183" transform="matrix(1 0 0 1 3131.6 1303)">B2</text><text font-family="Arial,Arial_MSFontService,sans-serif" font-weight="400" font-size="183" transform="matrix(1 0 0 1 1050.56 1303)">A1</text><text font-family="Arial,Arial_MSFontService,sans-serif" font-weight="400" font-size="183" transform="matrix(1 0 0 1 1571.87 1303)">A2</text><path d="M1599 1770C1577.18 1770 1559.5 1767.05 1559.5 1763.42L1559.5 1607.58C1559.5 1603.95 1541.82 1601 1520 1601 1541.82 1601 1559.5 1598.05 1559.5 1594.42L1559.5 1438.58C1559.5 1434.95 1577.18 1432 1599 1432" stroke="#000000" stroke-width="10.3125" stroke-miterlimit="8" fill="none" fill-rule="evenodd"/><path d="M1235 1431C1256.82 1431 1274.5 1433.95 1274.5 1437.58L1274.5 1593.92C1274.5 1597.55 1292.18 1600.5 1314 1600.5 1292.18 1600.5 1274.5 1603.45 1274.5 1607.08L1274.5 1763.42C1274.5 1767.05 1256.82 1770 1235 1770" stroke="#000000" stroke-width="10.3125" stroke-miterlimit="8" fill="none" fill-rule="evenodd"/><text font-family="Arial,Arial_MSFontService,sans-serif" font-weight="400" font-size="48" transform="matrix(1 0 0 1 1328.85 1616)">Duration</text><path d="M3174 1770C3152.19 1770 3134.5 1767.05 3134.5 1763.42L3134.5 1607.08C3134.5 1603.45 3116.82 1600.5 3095 1600.5 3116.82 1600.5 3134.5 1597.55 3134.5 1593.92L3134.5 1437.58C3134.5 1433.95 3152.19 1431 3174 1431" stroke="#000000" stroke-width="10.3125" stroke-miterlimit="8" fill="none" fill-rule="evenodd"/><path d="M2811 1431C2832.82 1431 2850.5 1433.95 2850.5 1437.58L2850.5 1593.42C2850.5 1597.05 2868.18 1600 2890 1600 2868.18 1600 2850.5 1602.95 2850.5 1606.58L2850.5 1762.42C2850.5 1766.05 2832.82 1769 2811 1769" stroke="#000000" stroke-width="10.3125" stroke-miterlimit="8" fill="none" fill-rule="evenodd"/><text font-family="Arial,Arial_MSFontService,sans-serif" font-weight="400" font-size="48" transform="matrix(1 0 0 1 2901.26 1615)">Duration</text><text font-family="Arial,Arial_MSFontService,sans-serif" font-weight="400" font-size="83" transform="matrix(-1.83697e-16 -1 1 -1.83697e-16 742.605 1737)">Terminal links</text><path d="M902 1902C880.185 1902 862.5 1899.05 862.5 1895.42L862.5 1494.08C862.5 1490.45 844.815 1487.5 823 1487.5 844.815 1487.5 862.5 1484.55 862.5 1480.92L862.5 1079.58C862.5 1075.95 880.185 1073 902 1073" stroke="#000000" stroke-width="10.3125" stroke-miterlimit="8" fill="none" fill-rule="evenodd"/><text font-family="Arial,Arial_MSFontService,sans-serif" font-weight="400" font-size="83" transform="matrix(-1.83697e-16 -1 1 -1.83697e-16 741.641 873)">Initial link</text><path d="M902 876C880.185 876 862.5 873.053 862.5 869.417L862.5 713.583C862.5 709.947 844.815 707 823 707 844.815 707 862.5 704.053 862.5 700.417L862.5 544.583C862.5 540.947 880.185 538 902 538" stroke="#000000" stroke-width="10.3125" stroke-miterlimit="8" fill="none" fill-rule="evenodd"/><text font-family="Arial,Arial_MSFontService,sans-serif" font-weight="400" font-size="83" transform="matrix(6.12323e-17 1 -1 6.12323e-17 3667.09 1232)">Terminal links</text><path d="M79.0001 830C57.1845 830 39.4996 827.053 39.4996 823.418L39.5005 421.583C39.5005 417.947 21.8155 415-6.6044e-15 415 21.8155 415 39.5005 412.053 39.5005 408.417L39.5005 6.58263C39.5005 2.94715 57.1855-1.6511e-15 79.001-3.30219e-15" stroke="#000000" stroke-width="10.3125" stroke-miterlimit="8" fill="none" fill-rule="evenodd" transform="matrix(-1 0 0 1 3586 1067)"/><text font-family="Arial,Arial_MSFontService,sans-serif" font-weight="400" font-size="83" transform="matrix(6.12323e-17 1 -1 6.12323e-17 3666.84 529)">Initial link</text><path d="M79.0001 338C57.1848 338 39.5 335.053 39.5 331.417L39.5 175.583C39.5 171.947 21.8153 169-5.37901e-15 169 21.8153 169 39.5 166.053 39.5 162.417L39.5 6.58294C39.5 2.94728 57.1848-2.68949e-15 79.0001-4.03424e-15" stroke="#000000" stroke-width="10.3125" stroke-miterlimit="8" fill="none" fill-rule="evenodd" transform="matrix(-1 0 0 1 3585 533)"/></g></svg>